<?xml version="1.0" encoding="utf-8"?>
<!-- Generator: Adobe Illustrator 16.0.0, SVG Export Plug-In . SVG Version: 6.00 Build 0)  -->
<!DOCTYPE svg PUBLIC "-//W3C//DTD SVG 1.1//EN" "http://www.w3.org/Graphics/SVG/1.1/DTD/svg11.dtd">
<svg version="1.1" id="Layer_1" xmlns="http://www.w3.org/2000/svg" xmlns:xlink="http://www.w3.org/1999/xlink" x="0px" y="0px"
	 width="200px" height="200px" viewBox="0 0 200 200" enable-background="new 0 0 200 200" xml:space="preserve">
<g>
	<path fill="#FFFFFF" d="M134.851,45.003c16.115,11.521,26.623,30.385,26.623,51.703c0,35.072-28.432,63.502-63.506,63.502
		c-34.442,0-62.475-27.416-63.473-61.619c-0.018,0.641-0.031,1.277-0.031,1.92c0,36.193,29.34,65.537,65.537,65.537
		c36.193,0,65.535-29.344,65.535-65.537C165.536,77.126,153.284,56.604,134.851,45.003z"/>
	<path fill="#FFFFFF" d="M125.73,112.021c0,0-13.452-0.271-24.208-8.723c-17.584,7.996-23.113,32.479-23.113,32.479
		c-2.031,10.02,20.854,6.959,20.854,6.959c2.964-0.73,5.725-1.568,8.308-2.471C106.047,131.448,107.8,119.128,125.73,112.021z"/>
	<path fill="#FFFFFF" d="M141.923,110.313c19.705-52.793-41.715-76.359-41.715-76.359c3.521,2.844,5.688,6.904,5.688,6.904
		c5.687,6.906,0.135,15.572,0.135,15.572c-0.317,0.633-0.577,1.271-0.81,1.912c1.739,2.393,3.552,4.73,5.474,6.982
		C122.492,79.163,146.463,89.513,141.923,110.313z"/>
	<path fill="#FFFFFF" d="M136.497,121.929c0,0-8.738,11.285-28.927,18.336c1.038,6.008,3.596,10.391,3.596,10.391
		c3.605-7.797,14.601-16.643,14.603-16.643c6.236-5.02,11.589-11.291,14.627-18.781c0.691-1.707,1.183-3.34,1.527-4.918
		C140.531,114.04,138.747,117.907,136.497,121.929z"/>
	<path fill="#FFFFFF" d="M122.958,102.198c0,0-0.677-4.469-10.901-17.604c0,0-11.465-13.506-6.835-26.252
		c-3.137-4.314-6.028-8.809-8.845-13.336c-4.077,4.625-6.151,12.336-6.151,12.336c-5.4,25.021,1.926,38.592,11.297,45.955
		C107.293,100.673,114.359,99.821,122.958,102.198z"/>
</g>
</svg>
