<?xml version="1.0" encoding="utf-8"?>
<!-- Generator: Adobe Illustrator 16.0.0, SVG Export Plug-In . SVG Version: 6.00 Build 0)  -->
<!DOCTYPE svg PUBLIC "-//W3C//DTD SVG 1.1//EN" "http://www.w3.org/Graphics/SVG/1.1/DTD/svg11.dtd">
<svg version="1.1" id="Layer_1" xmlns="http://www.w3.org/2000/svg" xmlns:xlink="http://www.w3.org/1999/xlink" x="0px" y="0px"
	 width="200px" height="200px" viewBox="0 0 200 200" enable-background="new 0 0 200 200" xml:space="preserve">
<g>
	<path fill="#FFFFFF" d="M70.031,119.705c7.779-1.102,11.273,1.254,11.273,1.254c0-0.018,0-0.703,0-0.703V70.113
		c0-5.84,4.732-11.932,10.572-13.597l32.396-9.911c-7.4-3.369-15.613-5.262-24.273-5.262c-32.395,0-58.656,26.262-58.656,58.656
		c0,11.967,3.592,23.091,9.744,32.369C54.287,126.045,61.561,120.908,70.031,119.705z"/>
	<path fill="#FFFFFF" d="M150.654,70.437v49.885c0,9.202-9.264,17.784-20.695,19.169c-11.424,1.388-20.688-4.435-20.688-13.637
		c0-9.194,9.264-17.78,20.688-19.164c7.779-0.946,12.121,1.553,12.121,1.553c0-0.018,0-0.026,0-0.026s0-30.479,0-34.844
		c0-4.365-4.715-2.781-4.715-2.781L94.746,83.95c0,0-4.904,1.748-4.904,5.826c0,4.079,0,43.414,0,43.414
		c0,8.445-7.064,16.282-17.062,18.765c8.137,4.271,17.393,6.701,27.221,6.701c32.395,0,58.656-26.262,58.656-58.656
		C158.656,89.216,155.732,79.119,150.654,70.437z"/>
</g>
</svg>
