<?xml version="1.0" encoding="utf-8"?>
<!-- Generator: Adobe Illustrator 16.0.0, SVG Export Plug-In . SVG Version: 6.00 Build 0)  -->
<!DOCTYPE svg PUBLIC "-//W3C//DTD SVG 1.1//EN" "http://www.w3.org/Graphics/SVG/1.1/DTD/svg11.dtd">
<svg version="1.1" id="Layer_1" xmlns="http://www.w3.org/2000/svg" xmlns:xlink="http://www.w3.org/1999/xlink" x="0px" y="0px"
	 width="200px" height="200px" viewBox="0 0 200 200" enable-background="new 0 0 200 200" xml:space="preserve">
<path fill="#FFFFFF" d="M134.65,135.078c0,0-2.854-4.195-14.936-4.533c0,0-40.778-1.34-68.468-15.353c0,0-3.44-1.596-2.099-4.533
	c0,0,0.503-4.113,9.312-1.006c0,0,26.678,7.049,41.863,4.028c0,0-18.119-6.503-15.769-9.44c0,0-1.932-4.708,24.001,2.266
	c0,0,2.771,0.973,6.672,1.072c-0.818-4.97-6.197-31.491-29.413-43.402c0,0,25.599,8.345,32.048,43.323
	c2.143-0.179,4.473-0.665,6.799-1.704c0,0,7.467-2.435,12.672-0.588c5.707,2.026,11.412,5.47,19.934,16.084
	c2.465-6.63,3.818-13.802,3.818-21.292c0-33.736-27.35-61.087-61.086-61.087c-33.737,0-61.087,27.351-61.087,61.087
	c0,33.739,27.35,61.087,61.087,61.087c16.727,0,31.877-6.728,42.908-17.618L134.65,135.078z M122.189,67.554
	c2.393,22.675-7.928,23.098-7.928,23.098C110.045,71.331,122.189,67.554,122.189,67.554z M107.59,49.177
	c0,0,6.543,13.216-7.111,21.902C100.479,71.079,98.653,54.339,107.59,49.177z M108.555,92.371c-11.244,9.229-22.739,0-22.741,0
	C100.077,83.308,108.555,92.371,108.555,92.371z M96.808,75.757c0,0-7.721,10.487-23.075,2.097
	C73.732,77.854,84.521,67.285,96.808,75.757z"/>
</svg>
