<?xml version="1.0" encoding="utf-8"?>
<!-- Generator: Adobe Illustrator 16.0.0, SVG Export Plug-In . SVG Version: 6.00 Build 0)  -->
<!DOCTYPE svg PUBLIC "-//W3C//DTD SVG 1.1//EN" "http://www.w3.org/Graphics/SVG/1.1/DTD/svg11.dtd">
<svg version="1.1" id="Layer_1" xmlns="http://www.w3.org/2000/svg" xmlns:xlink="http://www.w3.org/1999/xlink" x="0px" y="0px"
	 width="50px" height="50px" viewBox="0 0 50 50" enable-background="new 0 0 50 50" xml:space="preserve">
<g>
	<path fill="#FFFFFF" d="M25,4.679l6.603,13.379l14.764,2.146L35.684,30.618l2.522,14.703L25,38.38l-13.205,6.941l2.521-14.703
		L3.634,20.204l14.764-2.146L25,4.679 M25,3.179c-0.571,0-1.092,0.324-1.345,0.836l-6.253,12.672L3.418,18.72
		c-0.565,0.082-1.034,0.478-1.211,1.021c-0.176,0.543-0.029,1.139,0.38,1.538l10.118,9.863l-2.388,13.926
		c-0.096,0.563,0.135,1.132,0.597,1.468c0.261,0.189,0.571,0.286,0.882,0.286c0.239,0,0.479-0.057,0.698-0.172L25,40.074
		l12.508,6.575c0.22,0.115,0.459,0.172,0.698,0.172c0.311,0,0.62-0.097,0.882-0.286c0.462-0.336,0.693-0.904,0.597-1.468
		l-2.39-13.926l10.118-9.863c0.409-0.398,0.556-0.995,0.38-1.538c-0.177-0.543-0.646-0.939-1.211-1.021l-13.983-2.033L26.345,4.015
		C26.093,3.503,25.571,3.179,25,3.179L25,3.179z"/>
</g>
</svg>
