<?xml version="1.0" encoding="utf-8"?>
<!-- Generator: Adobe Illustrator 16.0.0, SVG Export Plug-In . SVG Version: 6.00 Build 0)  -->
<!DOCTYPE svg PUBLIC "-//W3C//DTD SVG 1.1//EN" "http://www.w3.org/Graphics/SVG/1.1/DTD/svg11.dtd">
<svg version="1.1" id="Layer_1" xmlns="http://www.w3.org/2000/svg" xmlns:xlink="http://www.w3.org/1999/xlink" x="0px" y="0px"
	 width="77.086px" height="77.086px" viewBox="0 0 77.086 77.086" enable-background="new 0 0 77.086 77.086" xml:space="preserve">
<g>
	<g>
		<path fill="#FFFFFF" d="M53.993,37.19L32.738,22.654c-0.661-0.487-2.423-0.487-2.564,1.354v29.073
			c0.157,1.84,1.951,1.871,2.564,1.354l21.254-14.537C54.543,39.567,55.297,38.213,53.993,37.19z M33.462,49.981V27.106
			l16.691,11.438L33.462,49.981z"/>
		<path fill="#FFFFFF" d="M38.543,0C17.29,0,0,17.29,0,38.544c0,21.253,17.29,38.542,38.543,38.542s38.543-17.289,38.543-38.542
			C77.086,17.29,59.797,0,38.543,0z M38.543,73.799c-19.445,0-35.255-15.811-35.255-35.255c0-19.445,15.811-35.256,35.255-35.256
			c19.445,0,35.256,15.811,35.256,35.256C73.799,57.989,57.989,73.799,38.543,73.799z"/>
	</g>
</g>
</svg>
