<?xml version="1.0" encoding="utf-8"?>
<!-- Generator: Adobe Illustrator 16.0.0, SVG Export Plug-In . SVG Version: 6.00 Build 0)  -->
<!DOCTYPE svg PUBLIC "-//W3C//DTD SVG 1.1//EN" "http://www.w3.org/Graphics/SVG/1.1/DTD/svg11.dtd">
<svg version="1.1" id="Layer_1" xmlns="http://www.w3.org/2000/svg" xmlns:xlink="http://www.w3.org/1999/xlink" x="0px" y="0px"
	 width="90px" height="90px" viewBox="0 0 90 90" enable-background="new 0 0 90 90" xml:space="preserve">
<g>
	<path fill="#DC4B39" d="M5.026,5.394V85.47h80.078V5.394H5.026z M51.708,48.8c-1.369,8.996-8.076,14.152-16.759,14.152
		c-9.757,0-17.669-7.91-17.669-17.668c0-9.755,7.912-17.665,17.669-17.665c4.72,0,8.856,1.684,11.866,4.608l-5.07,5.07
		c-1.718-1.73-4.068-2.652-6.796-2.652c-5.743,0-10.399,4.897-10.399,10.639c0,5.747,4.656,10.502,10.399,10.502
		c4.813,0,8.46-2.327,9.511-6.986h-9.511v-7.095h16.716c0.201,1.144,0.302,2.339,0.302,3.579
		C51.967,46.514,51.878,47.685,51.708,48.8L51.708,48.8z M72.925,46.601h-6.191v6.188h-4.396v-6.188h-6.191v-4.4h6.191v-6.19h4.396
		v6.19h6.191V46.601z M72.925,46.601"/>
</g>
</svg>
