<?xml version="1.0" encoding="utf-8"?>
<!-- Generator: Adobe Illustrator 16.0.0, SVG Export Plug-In . SVG Version: 6.00 Build 0)  -->
<!DOCTYPE svg PUBLIC "-//W3C//DTD SVG 1.1//EN" "http://www.w3.org/Graphics/SVG/1.1/DTD/svg11.dtd">
<svg version="1.1" id="Layer_1" xmlns="http://www.w3.org/2000/svg" xmlns:xlink="http://www.w3.org/1999/xlink" x="0px" y="0px"
	 width="50px" height="50px" viewBox="0 0 50 50" enable-background="new 0 0 50 50" xml:space="preserve">
<g>
	<path fill="#FFFFFF" d="M42.815,28.434h-15c-0.69,0-1.25,0.559-1.25,1.25v15c0,0.691,0.56,1.25,1.25,1.25h15
		c0.691,0,1.25-0.559,1.25-1.25v-15C44.065,28.992,43.507,28.434,42.815,28.434z"/>
	<path fill="#FFFFFF" d="M39.925,4.121L25.583,8.514c-0.661,0.202-1.031,0.9-0.829,1.562l4.392,14.342
		c0.203,0.662,0.901,1.032,1.561,0.829l14.344-4.393c0.66-0.201,1.03-0.899,0.828-1.56L41.485,4.949
		C41.283,4.289,40.586,3.919,39.925,4.121z"/>
	<path fill="#FFFFFF" d="M20.316,5.934h-15c-0.69,0-1.25,0.559-1.25,1.25v15c0,0.691,0.56,1.25,1.25,1.25h15
		c0.69,0,1.25-0.559,1.25-1.25v-15C21.566,6.492,21.006,5.934,20.316,5.934z"/>
	<path fill="#FFFFFF" d="M20.316,28.434h-15c-0.69,0-1.25,0.559-1.25,1.25v15c0,0.691,0.56,1.25,1.25,1.25h15
		c0.69,0,1.25-0.559,1.25-1.25v-15C21.566,28.992,21.006,28.434,20.316,28.434z"/>
</g>
</svg>
