<?xml version="1.0" encoding="utf-8"?>
<!-- Generator: Adobe Illustrator 16.0.0, SVG Export Plug-In . SVG Version: 6.00 Build 0)  -->
<!DOCTYPE svg PUBLIC "-//W3C//DTD SVG 1.1//EN" "http://www.w3.org/Graphics/SVG/1.1/DTD/svg11.dtd">
<svg version="1.1" id="Layer_1" xmlns="http://www.w3.org/2000/svg" xmlns:xlink="http://www.w3.org/1999/xlink" x="0px" y="0px"
	 width="50px" height="50px" viewBox="0 0 50 50" enable-background="new 0 0 50 50" xml:space="preserve">
<g>
	<path fill="none" stroke="#FFFFFF" stroke-width="1.5" stroke-miterlimit="10" d="M43.75,27.5h-15c-0.691,0-1.25,0.559-1.25,1.25
		v15c0,0.691,0.559,1.25,1.25,1.25h15c0.691,0,1.25-0.559,1.25-1.25v-15C45,28.059,44.441,27.5,43.75,27.5z M43.75,5h-15
		c-0.691,0-1.25,0.559-1.25,1.25v15c0,0.691,0.559,1.25,1.25,1.25h15c0.691,0,1.25-0.559,1.25-1.25v-15C45,5.559,44.441,5,43.75,5z
		 M21.25,5h-15C5.56,5,5,5.559,5,6.25v15c0,0.691,0.561,1.25,1.25,1.25h15c0.689,0,1.25-0.559,1.25-1.25v-15
		C22.5,5.559,21.939,5,21.25,5z M21.25,27.5h-15C5.56,27.5,5,28.059,5,28.75v15C5,44.441,5.56,45,6.25,45h15
		c0.689,0,1.25-0.559,1.25-1.25v-15C22.5,28.059,21.939,27.5,21.25,27.5z"/>
</g>
</svg>
