<?xml version="1.0" encoding="utf-8"?>
<!-- Generator: Adobe Illustrator 16.0.0, SVG Export Plug-In . SVG Version: 6.00 Build 0)  -->
<!DOCTYPE svg PUBLIC "-//W3C//DTD SVG 1.1//EN" "http://www.w3.org/Graphics/SVG/1.1/DTD/svg11.dtd">
<svg version="1.1" id="Layer_1" xmlns="http://www.w3.org/2000/svg" xmlns:xlink="http://www.w3.org/1999/xlink" x="0px" y="0px"
	 width="30px" height="30px" viewBox="0 0 30 30" enable-background="new 0 0 30 30" xml:space="preserve">
<path d="M29.795,1.28c-0.134-0.118-0.323-0.145-0.484-0.07L0.312,14.683c-0.155,0.073-0.256,0.228-0.257,0.4
	c-0.002,0.172,0.094,0.33,0.25,0.406l8.205,4.026c0.15,0.073,0.33,0.057,0.466-0.043l7.979-5.963l-6.266,6.443
	c-0.089,0.092-0.133,0.218-0.124,0.345l0.623,8.122c0.015,0.181,0.136,0.334,0.307,0.391c0.046,0.015,0.093,0.022,0.139,0.022
	c0.128,0,0.252-0.055,0.34-0.155l4.354-5.047l5.386,2.572c0.117,0.056,0.25,0.059,0.371,0.008c0.116-0.053,0.208-0.153,0.246-0.276
	l7.594-24.185C29.979,1.58,29.927,1.396,29.795,1.28z"/>
</svg>
