<?xml version="1.0" encoding="utf-8"?>
<!-- Generator: Adobe Illustrator 16.0.0, SVG Export Plug-In . SVG Version: 6.00 Build 0)  -->
<!DOCTYPE svg PUBLIC "-//W3C//DTD SVG 1.1//EN" "http://www.w3.org/Graphics/SVG/1.1/DTD/svg11.dtd">
<svg version="1.1" id="Layer_1" xmlns="http://www.w3.org/2000/svg" xmlns:xlink="http://www.w3.org/1999/xlink" x="0px" y="0px"
	 width="30px" height="30px" viewBox="0 0 30 30" enable-background="new 0 0 30 30" xml:space="preserve">
<g>
	<g>
		<path d="M25.43,4.57c-5.759-5.76-15.1-5.761-20.86,0c-5.76,5.76-5.76,15.099,0,20.859c5.76,5.76,15.1,5.761,20.86,0
			S31.188,10.33,25.43,4.57z M16.924,21.413c0,1.062-0.862,1.924-1.925,1.924s-1.924-0.862-1.924-1.924v-7.696
			c0-1.062,0.861-1.924,1.924-1.924s1.925,0.862,1.925,1.924V21.413z M14.965,10.429c-1.108,0-1.847-0.784-1.823-1.754
			c-0.023-1.017,0.715-1.777,1.846-1.777c1.133,0,1.848,0.763,1.871,1.777C16.857,9.645,16.12,10.429,14.965,10.429z"/>
	</g>
</g>
</svg>
