<?xml version="1.0" encoding="utf-8"?>
<!-- Generator: Adobe Illustrator 16.0.0, SVG Export Plug-In . SVG Version: 6.00 Build 0)  -->
<!DOCTYPE svg PUBLIC "-//W3C//DTD SVG 1.1//EN" "http://www.w3.org/Graphics/SVG/1.1/DTD/svg11.dtd">
<svg version="1.1" id="Layer_1" xmlns="http://www.w3.org/2000/svg" xmlns:xlink="http://www.w3.org/1999/xlink" x="0px" y="0px"
	 width="30px" height="30px" viewBox="0 0 30 30" enable-background="new 0 0 30 30" xml:space="preserve">
<g>
	<g>
		<g>
			<path d="M11.452,26.392c0,0.006,0,0.015,0,0.022c0,1.958,1.588,3.548,3.548,3.548c1.959,0,3.548-1.59,3.548-3.548
				c0-0.008,0-0.017,0-0.022H11.452z"/>
			<path d="M26.327,21.955l-3.192-4.69c0-1.436,0-4.944,0-5.852c0-3.946-2.812-7.236-6.54-7.978V1.633
				c0-0.881-0.713-1.595-1.595-1.595s-1.595,0.714-1.595,1.595v1.802c-3.729,0.742-6.54,4.031-6.54,7.978c0,1.545,0,4.956,0,5.852
				l-3.193,4.69C3.335,22.449,3.3,23.09,3.58,23.617c0.279,0.528,0.828,0.859,1.426,0.859h19.989c0.598,0,1.146-0.331,1.426-0.859
				C26.7,23.089,26.664,22.449,26.327,21.955z"/>
		</g>
	</g>
</g>
</svg>
