<?xml version="1.0" encoding="utf-8"?>
<!-- Generator: Adobe Illustrator 16.0.0, SVG Export Plug-In . SVG Version: 6.00 Build 0)  -->
<!DOCTYPE svg PUBLIC "-//W3C//DTD SVG 1.1//EN" "http://www.w3.org/Graphics/SVG/1.1/DTD/svg11.dtd">
<svg version="1.1" id="Layer_1" xmlns="http://www.w3.org/2000/svg" xmlns:xlink="http://www.w3.org/1999/xlink" x="0px" y="0px"
	 width="30px" height="30px" viewBox="0 0 30 30" enable-background="new 0 0 30 30" xml:space="preserve">
<g>
	<path id="settings_1_" d="M28.509,12.877l-2.887-0.481c-0.211-0.858-0.518-1.678-0.916-2.443l1.85-2.292
		c0.393-0.484,0.375-1.181-0.039-1.648l-1.148-1.292c-0.416-0.467-1.107-0.566-1.633-0.233l-2.471,1.553
		c-1.086-0.759-2.316-1.319-3.645-1.645l-0.482-2.903c-0.102-0.615-0.633-1.066-1.258-1.066h-1.73c-0.623,0-1.156,0.451-1.256,1.066
		l-0.486,2.904c-1.098,0.269-2.125,0.702-3.064,1.274l-2.35-1.676C6.487,3.63,5.792,3.687,5.351,4.128L4.128,5.352
		C3.687,5.793,3.63,6.488,3.993,6.995l1.68,2.353c-0.564,0.932-0.994,1.955-1.264,3.042l-2.92,0.487
		c-0.613,0.102-1.064,0.634-1.064,1.258v1.729c0,0.625,0.451,1.157,1.064,1.259l2.92,0.487c0.221,0.895,0.541,1.75,0.967,2.543
		l-1.84,2.279c-0.393,0.483-0.375,1.181,0.039,1.648l1.146,1.292c0.418,0.468,1.107,0.565,1.635,0.233l2.506-1.574
		c1.059,0.725,2.258,1.258,3.545,1.574l0.486,2.903c0.1,0.614,0.633,1.065,1.256,1.065h1.73c0.625,0,1.156-0.451,1.258-1.065
		l0.484-2.903c1.084-0.266,2.1-0.691,3.029-1.253l2.447,1.747c0.506,0.363,1.201,0.307,1.643-0.136l1.223-1.224
		c0.439-0.44,0.5-1.135,0.135-1.643l-1.742-2.441c0.568-0.936,0.998-1.96,1.266-3.053l2.889-0.482
		c0.615-0.101,1.064-0.633,1.064-1.258v-1.729C29.575,13.511,29.124,12.979,28.509,12.877z M15.046,20.466
		c-3.018,0-5.467-2.448-5.467-5.465c0-3.019,2.449-5.467,5.467-5.467s5.465,2.448,5.465,5.467
		C20.511,18.018,18.063,20.466,15.046,20.466z"/>
</g>
</svg>
