<?xml version="1.0" encoding="utf-8"?>
<!-- Generator: Adobe Illustrator 16.0.0, SVG Export Plug-In . SVG Version: 6.00 Build 0)  -->
<!DOCTYPE svg PUBLIC "-//W3C//DTD SVG 1.1//EN" "http://www.w3.org/Graphics/SVG/1.1/DTD/svg11.dtd">
<svg version="1.1" id="Layer_1" xmlns="http://www.w3.org/2000/svg" xmlns:xlink="http://www.w3.org/1999/xlink" x="0px" y="0px"
	 width="30px" height="30px" viewBox="0 0 30 30" enable-background="new 0 0 30 30" xml:space="preserve">
<g>
	<path d="M24.626,12.192h-0.567V9.53c0-4.924-3.908-9.036-8.792-9.124c-0.133-0.002-0.399-0.002-0.533,0
		c-4.883,0.088-8.791,4.2-8.791,9.124v2.662H5.374c-0.877,0-1.592,0.905-1.592,2.022v13.351c0,1.116,0.715,2.029,1.592,2.029h19.252
		c0.877,0,1.592-0.913,1.592-2.029V14.215C26.218,13.098,25.503,12.192,24.626,12.192z M16.804,20.877v4.034
		c0,0.462-0.387,0.853-0.85,0.853h-1.908c-0.463,0-0.85-0.391-0.85-0.853v-4.034c-0.448-0.442-0.709-1.052-0.709-1.728
		c0-1.279,0.988-2.379,2.246-2.43c0.134-0.005,0.4-0.005,0.533,0c1.258,0.051,2.246,1.15,2.246,2.43
		C17.513,19.825,17.252,20.435,16.804,20.877z M20.31,12.192h-5.043h-0.533H9.691V9.53c0-2.933,2.383-5.357,5.309-5.357
		c2.925,0,5.31,2.425,5.31,5.357V12.192L20.31,12.192z"/>
</g>
</svg>
