<?xml version="1.0" encoding="utf-8"?>
<!-- Generator: Adobe Illustrator 16.0.0, SVG Export Plug-In . SVG Version: 6.00 Build 0)  -->
<!DOCTYPE svg PUBLIC "-//W3C//DTD SVG 1.1//EN" "http://www.w3.org/Graphics/SVG/1.1/DTD/svg11.dtd">
<svg version="1.1" id="Layer_1" xmlns="http://www.w3.org/2000/svg" xmlns:xlink="http://www.w3.org/1999/xlink" x="0px" y="0px"
	 width="30px" height="30px" viewBox="0 0 30 30" enable-background="new 0 0 30 30" xml:space="preserve">
<g>
	<path fill="#030104" d="M14.811,0.829C6.984,0.934,0.725,7.364,0.829,15.19c0.104,7.823,6.535,14.084,14.36,13.98
		c7.825-0.105,14.085-6.535,13.981-14.362C29.066,6.985,22.636,0.725,14.811,0.829z M14.769,23.626l-0.078-0.001
		c-1.205-0.036-2.055-0.924-2.021-2.111c0.033-1.167,0.903-2.014,2.069-2.014l0.07,0.001c1.238,0.036,2.078,0.916,2.044,2.137
		C16.819,22.809,15.962,23.626,14.769,23.626z M19.839,13.564c-0.284,0.403-0.907,0.903-1.692,1.515l-0.865,0.598
		c-0.475,0.368-0.761,0.715-0.868,1.058c-0.085,0.269-0.127,0.341-0.135,0.888v0.139h-3.303l0.01-0.279
		c0.04-1.148,0.068-1.825,0.545-2.383c0.746-0.877,2.395-1.938,2.465-1.982c0.234-0.179,0.434-0.381,0.582-0.597
		c0.346-0.479,0.5-0.854,0.5-1.224c0-0.514-0.152-0.987-0.453-1.41c-0.289-0.407-0.84-0.613-1.634-0.613
		c-0.788,0-1.327,0.25-1.651,0.763c-0.332,0.527-0.5,1.082-0.5,1.648v0.142H9.435l0.006-0.147c0.089-2.086,0.832-3.588,2.211-4.464
		c0.867-0.558,1.945-0.841,3.204-0.841c1.646,0,3.037,0.4,4.132,1.19c1.109,0.8,1.672,1.997,1.672,3.56
		C20.659,11.997,20.383,12.818,19.839,13.564z"/>
</g>
</svg>
